Coordinates
version=1
nRows=7
nColumns=40
inDegrees=yes

Units are S.I. units (second, meters, Newtons, ...)
If the header above contains a line with 'inDegrees', this indicates whether rotational values are in degrees (yes) or radians (no).

endheader
time	pelvis_tilt	pelvis_list	pelvis_rotation	pelvis_tx	pelvis_ty	pelvis_tz	hip_flexion_r	hip_adduction_r	hip_rotation_r	knee_angle_r	knee_angle_r_beta	ankle_angle_r	subtalar_angle_r	mtp_angle_r	hip_flexion_l	hip_adduction_l	hip_rotation_l	knee_angle_l	knee_angle_l_beta	ankle_angle_l	subtalar_angle_l	mtp_angle_l	lumbar_extension	lumbar_bending	lumbar_rotation	arm_flex_r	arm_add_r	arm_rot_r	elbow_flex_r	pro_sup_r	wrist_flex_r	wrist_dev_r	arm_flex_l	arm_add_l	arm_rot_l	elbow_flex_l	pro_sup_l	wrist_flex_l	wrist_dev_l
      4.47500000	    -26.94377077	     -0.74883952	      0.60574187	     -0.37538158	      0.85320805	     -1.03416537	     31.76543436	     -4.12151907	     -1.66372391	     91.69106916	      1.60031105	     -2.68496658	      0.00000000	      0.00000000	     67.42973377	      4.83544717	      7.49110278	     70.25509683	      1.22618276	     19.45434028	      0.00000000	      0.00000000	     -3.45790507	    -14.17313332	      0.16463967	     89.95807625	    -22.65920184	      9.33241035	     47.53244760	     66.04666296	      0.00000000	      0.00000000	     89.94625398	    -48.97213705	     -0.15383412	     54.44429927	     80.35525186	      0.00000000	      0.00000000
      4.48000000	    -26.90661935	     -0.72922262	      0.48126676	     -0.37512960	      0.85429602	     -1.03415720	     31.80685218	     -4.09900067	     -1.77578483	     91.67717585	      1.60006857	     -2.67803762	      0.00000000	      0.00000000	     67.28554747	      4.81649612	      7.54879952	     70.13117107	      1.22401984	     19.42451431	      0.00000000	      0.00000000	     -3.40947404	    -14.09224129	      0.25408876	     89.95774313	    -22.83633577	      9.29414776	     47.49303793	     66.04958484	      0.00000000	      0.00000000	     89.94579084	    -49.18799577	     -0.21598900	     54.42128138	     80.34810893	      0.00000000	      0.00000000
      4.48500000	    -26.84309627	     -0.71160716	      0.31157519	     -0.37487415	      0.85555293	     -1.03406174	     31.82025460	     -4.08185597	     -1.87587377	     91.61112447	      1.59891575	     -2.66251707	      0.00000000	      0.00000000	     67.06408592	      4.77073193	      7.64225484	     69.90392236	      1.22005361	     19.37303613	      0.00000000	      0.00000000	     -3.38521898	    -14.01364009	      0.36382065	     89.95740603	    -22.99096227	      9.29989781	     47.42405726	     66.05832545	      0.00000000	      0.00000000	     89.94521599	    -49.40615017	     -0.24985645	     54.37821540	     80.34266038	      0.00000000	      0.00000000
      4.49000000	    -26.53073803	     -0.66493780	      0.23286996	     -0.37409544	      0.85735357	     -1.03409883	     31.46790383	     -4.04168453	     -1.91555891	     91.42587240	      1.59568249	     -2.58952020	      0.00000000	      0.00000000	     66.46644206	      4.79503452	      7.71427036	     69.49727882	      1.21295634	     19.33394311	      0.00000000	      0.00000000	     -3.62136047	    -13.96275696	      0.40700347	     89.95710646	    -23.15276699	      9.50735796	     47.27378518	     66.12034808	      0.00000000	      0.00000000	     89.94479980	    -49.64529317	     -0.04312785	     54.28992775	     80.37034598	      0.00000000	      0.00000000
      4.49500000	    -26.50183575	     -0.65296471	      0.11048680	     -0.37377685	      0.85845655	     -1.03416164	     31.50218907	     -4.04344667	     -2.03975415	     91.39096882	      1.59507331	     -2.56385013	      0.00000000	      0.00000000	     66.33365374	      4.76664027	      7.75601195	     69.38781599	      1.21104585	     19.31693491	      0.00000000	      0.00000000	     -3.56825082	    -13.87235886	      0.47403219	     89.95672288	    -23.32559068	      9.48889493	     47.21887808	     66.12713554	      0.00000000	      0.00000000	     89.94444737	    -49.85645464	     -0.10623863	     54.27163280	     80.36574865	      0.00000000	      0.00000000
      4.50000000	    -26.43783610	     -0.65443447	     -0.01138048	     -0.37331289	      0.85972369	     -1.03410452	     31.48748425	     -4.03952519	     -2.21343218	     91.34136058	      1.59420749	     -2.53862385	      0.00000000	      0.00000000	     66.10231389	      4.71964643	      7.82928590	     69.17231927	      1.20728472	     19.27231975	      0.00000000	      0.00000000	     -3.54016634	    -13.76784397	      0.56987924	     89.95630873	    -23.52551220	      9.52298267	     47.11453623	     66.14194815	      0.00000000	      0.00000000	     89.94346438	    -50.11662678	     -0.12609724	     54.20133804	     80.36502299	      0.00000000	      0.00000000
      4.50500000	    -26.36231766	     -0.69624392	     -0.12286746	     -0.37294411	      0.86113386	     -1.03408685	     31.43894192	     -3.94635821	     -2.33136178	     91.21459617	      1.59199503	     -2.47718339	      0.00000000	      0.00000000	     65.82454960	      4.65417800	      7.93897369	     68.86245234	      1.20187652	     19.22853790	      0.00000000	      0.00000000	     -3.53158867	    -13.62649546	      0.63559401	     89.95592552	    -23.70627224	      9.61344861	     46.98986521	     66.16867816	      0.00000000	      0.00000000	     89.94297804	    -50.34345420	     -0.07953394	     54.13332474	     80.37658070	      0.00000000	      0.00000000
